<?xml version="1.0" standalone="no"?>
<!DOCTYPE svg PUBLIC "-//W3C//DTD SVG 20010904//EN"
 "http://www.w3.org/TR/2001/REC-SVG-20010904/DTD/svg10.dtd">
<svg version="1.0" xmlns="http://www.w3.org/2000/svg"
 width="626.000000pt" height="626.000000pt" viewBox="0 0 626.000000 626.000000"
 preserveAspectRatio="xMidYMid meet">

<g transform="translate(0.000000,626.000000) scale(0.100000,-0.100000)"
fill="#000000" stroke="none">
<path d="M790 5966 l0 -294 88 -21 c48 -12 130 -33 182 -47 271 -73 363 -98
445 -119 50 -13 144 -38 210 -55 162 -44 271 -73 385 -103 52 -14 156 -42 230
-62 74 -20 185 -50 245 -66 61 -15 153 -40 205 -54 52 -14 122 -32 155 -41 33
-8 90 -24 127 -35 l67 -20 113 31 c62 17 127 35 143 40 30 9 148 40 320 85 50
13 151 40 225 60 152 41 292 78 395 105 39 10 131 35 205 55 74 20 176 47 225
60 50 13 142 38 205 55 251 68 339 91 423 111 l87 21 0 294 0 294 -1170 -585
-1170 -585 -1170 585 -1170 585 0 -294z"/>
<path d="M2 3123 l3 -2346 50 -12 c28 -7 163 -43 300 -80 138 -37 282 -75 320
-85 39 -10 164 -44 280 -75 116 -31 253 -68 305 -81 52 -14 163 -43 245 -65
83 -23 173 -47 200 -54 253 -68 559 -150 600 -160 72 -18 534 -143 575 -155
19 -5 38 -10 42 -10 5 0 8 1055 8 2344 l0 2344 -27 10 c-30 11 -164 48 -508
136 -49 13 -151 40 -225 61 -74 20 -187 50 -250 67 -63 16 -146 39 -185 49
-86 23 -269 72 -390 104 -135 35 -296 78 -430 115 -66 17 -151 40 -190 50 -38
10 -131 34 -205 55 -74 20 -175 47 -225 60 -50 13 -134 35 -188 49 -53 14 -99
26 -102 26 -3 0 -4 -1056 -3 -2347z m881 1727 c4 0 7 -760 7 -1690 0 -929 2
-1690 4 -1690 1 0 365 -97 807 -215 442 -119 821 -220 842 -226 l37 -10 0
-279 c0 -154 -2 -280 -4 -280 -4 0 -2194 586 -2229 596 -16 5 -17 108 -17
1973 l0 1968 273 -73 c149 -41 275 -74 280 -74z"/>
<path d="M6170 5450 c-36 -10 -117 -32 -180 -48 -63 -17 -176 -47 -250 -67
-74 -21 -175 -48 -225 -61 -128 -33 -221 -57 -375 -99 -74 -20 -175 -47 -225
-60 -129 -33 -260 -68 -415 -111 -74 -20 -166 -44 -205 -54 -38 -10 -131 -35
-205 -55 -74 -20 -178 -48 -230 -62 -52 -13 -133 -35 -180 -48 -47 -12 -132
-34 -190 -49 -58 -15 -117 -32 -132 -38 l-28 -10 0 -2344 c0 -1289 4 -2344 8
-2344 5 0 31 7 58 15 56 16 434 118 539 145 39 10 174 46 300 80 127 34 262
70 300 80 39 10 140 37 225 60 85 22 196 52 245 65 50 13 185 49 300 80 116
32 233 63 260 70 28 7 181 48 340 90 160 43 304 81 320 84 l30 7 3 2347 c2
1875 0 2347 -10 2346 -7 -1 -42 -10 -78 -19z m-220 -2418 l0 -1969 -280 -74
-280 -75 0 1400 c0 770 -4 1396 -8 1391 -5 -6 -132 -289 -282 -630 -150 -341
-273 -621 -274 -622 -1 -1 -122 206 -270 461 -147 255 -274 472 -281 483 -12
15 -14 -180 -15 -1384 l0 -1402 -37 -10 c-193 -51 -489 -131 -504 -136 -19 -6
-19 32 -19 1963 l0 1969 273 73 c149 39 276 73 281 74 10 1 30 -33 336 -563
219 -379 234 -402 246 -380 6 13 132 296 279 629 146 333 270 609 275 613 6 7
517 151 553 156 4 0 7 -885 7 -1967z"/>
</g>
</svg>
